<svg xmlns="http://www.w3.org/2000/svg" version="1.1" style="" viewBox="14.25 98.9 178.74 36.52" width="200" height="55"><path fill="#c73255" d="M49.804,107.568q-1.628,0.66-2.794,0.66t-1.166-0.484q0-0.308,1.298-0.352t1.87-0.308q1.672-0.88,1.672-2.596q0-0.88-0.484-1.848q-1.408-2.508-6.82-2.508q-3.124,0-6.248,0.946t-5.236,2.904t-2.112,3.63q0,2.552,5.06,3.74l5.192,0.968q3.124,0.572,4.664,1.584q2.024,1.232,2.024,3.52q0,0.924-0.308,1.98q-1.408,4.752-7.26,7.26q-4.884,2.156-11.528,2.156q-1.892,0-3.3-0.176q1.408,0.792,3.696,1.364q0.176,0.044,0.176,0.176q0,0.396-0.924,0.396q-1.804,0-4.488-2.156q-3.652-0.572-5.456-2.024q-1.144-0.924-2.112-2.728t-0.968-3.256t0.572-2.42q1.32-2.332,3.344-2.332q1.54,0,1.804,2.596q0.616,5.016,0.836,5.72q0.66,2.156,2.244,3.652q1.848,0.396,4.004,0.396q4.752,0,9.328-1.892t6.6-5.368q0.836-1.364,0.836-2.42q0-2.068-3.652-3.212l-7.744-1.76q-2.376-0.572-3.806-1.892t-1.43-3.036q0-2.64,3.3-5.28q2.508-2.024,6.138-3.146t7.128-1.122t5.786,1.012q2.948,1.364,2.948,3.982t-2.684,3.674z M21.468,127.192q-2.552-2.816-3.256-7.7q-0.396-2.772-0.748-2.772t-0.66,0.198t-0.616,0.858t-0.308,1.716q0,3.388,2.376,5.808q1.188,1.232,3.212,1.892z M62.17548,126.664q-0.22,0.044-0.946,0.044t-1.452-0.572t-0.726-1.474t0.33-2.002t0.462-1.672q-5.06,5.896-7.92,5.896q-1.804,0-1.98-2.244l0-0.308q0-1.892,2.288-5.104q-1.276,1.144-2.596,2.64q-0.176,0.176-0.44,0.176q-0.176,0-0.176-0.22t0.396-0.748l6.072-7.128q1.144-1.32,2.332-1.32t1.188,0.792q0,0.308-0.264,0.572q-1.76,1.628-4.422,5.412t-2.662,5.588q0,0.792,0.528,0.792q1.848,0,5.368-3.652q1.232-1.232,4.576-5.434t4.4-4.202q1.584,0,1.584,1.232q0,0.44-1.848,2.552q-2.508,3.036-3.828,4.95t-1.32,3.102t0.66,1.188q0.308,0,0.704-0.176q3.036-1.32,7.26-6.16q0.264-0.308,0.528-0.308t0.264,0.286t-0.308,0.638q-1.892,2.2-4.444,4.422t-3.608,2.442z M85.19496,112.98l0.616-0.132q0.572,0,0.902,0.352t0.33,0.55t-0.044,0.44t-1.276,2.222q-1.54,2.684-2.552,4.532q-3.564,6.644-5.456,9.108q-4.048,5.368-7.7,5.368q-1.276,0-2.222-1.078t-0.99-2.398q0.132-0.528,0.396-0.528q0.132,0,0.22,0.308q0.22,1.144,0.836,1.76t1.232,0.616q2.508,0,5.368-3.3q1.892-2.2,4.18-6.424l2.2-4.356l-3.3,3.344q-3.168,3.036-4.334,3.036t-2.222-0.792q-1.188-0.88-1.188-2.332q0-3.212,4.51-7.656t8.206-4.444q1.496,0,1.936,0.968q0.132,0.352,0.22,0.594t0.132,0.242z M72.03896,123.804q0,1.584,1.1,1.584q2.552,0,6.952-5.588l4.664-6.424q-0.264-0.616-1.1-0.616q-2.728,0-7.172,4.202t-4.444,6.842z M103.33044,113.244l0.616-0.132q0.484,0,0.924,0.396t0.44,0.616t-2.728,4.246t-2.728,5.61q0,0.132,0.044,0.264q0.22,1.012,0.968,1.012q2.288,0,8.36-7.568q0.132-0.176,0.308-0.176t0.176,0.33t-0.396,0.858q-5.632,7.524-8.58,7.524q-0.396,0-0.748-0.132q-1.936-0.748-1.936-2.904q0-0.748,0.176-1.496l-2.728,2.64q-2.596,2.288-3.762,2.288t-2.222-0.748q-1.188-0.88-1.188-2.332q0-3.212,4.488-7.678t8.228-4.466q1.452,0,1.936,1.012q0.132,0.352,0.22,0.594t0.132,0.242z M90.17444,124.068q0,1.584,1.1,1.584q2.552,0,6.952-5.588l4.664-6.424q-0.352-0.616-1.144-0.616q-2.684,0-7.128,4.158t-4.444,6.886z M117.76992,126.62q-3.3,0-3.3-3.652q0-1.848,0.968-4.048t2.112-3.696q-0.22,0.044-0.572,0.044q-1.056,0-1.76-1.496l-3.256,4.224q-2.728,3.388-3.168,3.388q-0.22,0-0.22-0.176q0-0.44,0.748-1.276q3.828-4.444,5.412-7.524q1.012-3.828,2.552-3.828q1.012,0,1.012,0.88t-1.1,2.244l-1.056,1.408q0,0.924,1.364,0.924q0.792,0,1.76-0.572l1.144-0.704q0.088-0.044,0.44-0.044t0.748,0.44t0.264,0.792l-3.036,3.828q-2.816,3.608-2.816,5.698t1.936,2.09q2.024,0,4.972-2.156q1.76-1.276,3.212-2.86q1.364-1.584,1.496-1.584q0.308,0,0.308,0.33t-0.396,0.77l-1.408,1.584q-1.188,1.232-2.64,2.376q-3.476,2.596-5.72,2.596z M138.8754,108.866q0.594,0.418,0.594,0.99t-0.55,0.99t-1.21,0.418t-1.21-0.484t-0.55-1.1q0-1.232,1.672-1.232q0.66,0,1.254,0.418z M129.6574,126.884q-2.244,0-2.244-2.904q0-2.376,2.596-6.578t4.18-4.246q0.44,0,0.99,0.352t0.55,0.704q-0.22,0.308-0.528,0.682t-0.66,0.814t-0.968,1.254t-1.188,1.562q-3.3,4.268-3.3,5.874t1.1,1.606q0.924,0,2.508-1.012q3.696-2.288,5.852-5.016q0.792-1.012,1.078-1.012t0.286,0.352t-1.012,1.408t-1.606,1.672t-0.814,0.814t-0.814,0.748t-0.902,0.77t-0.88,0.66t-1.012,0.638t-1.012,0.462q-0.924,0.396-2.2,0.396z M151.44488,117.072q0,1.54-2.948,5.148q-3.476,4.268-5.94,4.268l-0.704,0q-1.144,0-1.804-1.188q-0.528-0.836-0.528-1.848q0-2.64,3.85-7.414t6.226-4.774q2.244,0,2.244,2.376q0,0.616-0.22,1.584q0.044,0.132,0.836,0.132t2.42-0.836q-0.044,0.748-3.476,2.156q0.044,0.176,0.044,0.396z M148.58488,114.784q-1.496,0-4.246,3.52t-2.75,5.192t1.056,1.672q1.892,0,4.796-3.432t2.904-4.928q-0.704-0.396-1.76-2.024z M166.58836,126.664q-0.22,0.044-0.946,0.044t-1.452-0.572t-0.726-1.474t0.33-2.002t0.462-1.672q-5.06,5.896-7.92,5.896q-1.804,0-1.98-2.244l0-0.308q0-1.892,2.288-5.104q-1.276,1.144-2.596,2.64q-0.176,0.176-0.44,0.176q-0.176,0-0.176-0.22t0.396-0.748l6.072-7.128q1.144-1.32,2.332-1.32t1.188,0.792q0,0.308-0.264,0.572q-1.76,1.628-4.422,5.412t-2.662,5.588q0,0.792,0.528,0.792q1.848,0,5.368-3.652q1.232-1.232,4.576-5.434t4.4-4.202q1.584,0,1.584,1.232q0,0.44-1.848,2.552q-2.508,3.036-3.828,4.95t-1.32,3.102t0.66,1.188q0.308,0,0.704-0.176q3.036-1.32,7.26-6.16q0.264-0.308,0.528-0.308t0.264,0.286t-0.308,0.638q-1.892,2.2-4.444,4.422t-3.608,2.442z M183.00784,125.74q-1.276,0.748-3.146,0.748t-2.86-1.232t-1.694-3.916q-0.792,0.792-1.1,0.792q-0.22,0-0.22-0.308t0.22-0.528q1.452-1.804,4.928-5.192l5.544-5.192q2.376-2.244,2.816-2.244q1.408,0,1.408,1.056q0,0.528-0.418,1.034t-0.616,0.792t-0.418,0.55q-0.792,1.364-1.606,5.632t-1.254,5.94q3.652-0.044,7.524-4.752q0.44-0.44,0.66-0.44t0.22,0.286t-0.396,0.77q-2.552,2.992-4.752,4.18q-1.32,0.66-3.432,1.1z M177.06784,120.856q0,1.496,0.99,2.442t2.222,0.946t1.892-0.484q0.88-0.484,1.738-4.048t1.034-6.292l0.176-1.496q-2.42,1.804-5.17,4.664t-2.838,3.784q-0.044,0.264-0.044,0.484z"/><path fill="#" d=""/></svg>